<svg xmlns="http://www.w3.org/2000/svg" viewBox="0 0 50 50" height="250" width="250"><defs></defs><path d="M44.138 24.162c-1-1.5-4-1.5-6.5.5a20.1 20.1 0 0 0-2.894 3.17 2.486 2.486 0 0 1-.706-1.654c-.107-3.541-.469-15.6-.469-18.891a2.5 2.5 0 1 0-5-.125c-.5 6.5-1 11-1 11h-1.5s-.5-6-1-13.5c-.268-4.022-5-3.5-5 0s-.5 13.5-.5 13.5h-1.5s-.5-8.112-1-11.612-4.5-3-4.5.5v12.112l-1.5.5s-.5-4-1-9.5c-.32-3.521-4.5-3.5-4.5 0s.5 9 .5 21.5c0 9 3.5 16.5 16.5 16.5 11.5 0 14-9 16.5-13 2.443-3.909 6.483-8.878 5.069-11z" fill="#ffe500"></path><path d="M44.138 24.162a2.361 2.361 0 0 0-1.325-.9c-.856 2.344-3.225 5.446-4.858 8.059-2.417 3.87-4.834 12.571-15.955 12.571-12.568 0-12.366-8.73-15.935-12.23 0 9 3.5 16.5 16.5 16.5 11.5 0 14-9 16.5-13 2.447-3.909 6.487-8.878 5.073-11z" fill="#f2c100"></path><path d="M44.138 24.162c-1-1.5-4-1.5-6.5.5a20.1 20.1 0 0 0-2.894 3.17 2.486 2.486 0 0 1-.706-1.654c-.107-3.541-.469-15.6-.469-18.891a2.5 2.5 0 1 0-5-.125c-.5 6.5-1 11-1 11h-1.5s-.5-6-1-13.5c-.268-4.022-5-3.5-5 0s-.5 13.5-.5 13.5h-1.5s-.5-8.112-1-11.612-4.5-3-4.5.5v12.112l-1.5.5s-.5-4-1-9.5c-.32-3.521-4.5-3.5-4.5 0s.5 9 .5 21.5c0 9 3.5 16.5 16.5 16.5 11.5 0 14-9 16.5-13 2.443-3.909 6.483-8.878 5.069-11z" fill="none" stroke="#45413c" stroke-linecap="round" stroke-linejoin="round" stroke-width="1.25px"></path><path d="M34.744 27.832c-2.106 2.33-6.106 1.83-9.106 4.83" fill="none" stroke="#45413c" stroke-linecap="round" stroke-linejoin="round" stroke-width="1.25px"></path></svg>