<svg xmlns="http://www.w3.org/2000/svg" viewBox="0 0 50 50" height="250" width="250"><defs></defs><path d="M38.746 17.575C36.6 12.757 32.33 9.5 25 9.5c-11.874 0-21.5 8.507-21.5 19s9.626 19 21.5 19 21.5-8.507 21.5-19c0-7.321-3.354-10.446-7.754-10.925z" fill="#ffe500"></path><path d="M43.5 19.646a8.087 8.087 0 0 0-4.754-2.071 13.1 13.1 0 0 0-4.193-5.34 8.49 8.49 0 0 0-.43 1.172 16.8 16.8 0 0 0-.368-1.713A16.3 16.3 0 0 0 25 9.5c-.136 0-.268.016-.4.018a14.571 14.571 0 0 0-1.447 5.682c-.4-2.321-1.238-4.32-2.964-5.209a22.944 22.944 0 0 0-6.51 2.374 13.037 13.037 0 0 0-1.006 4.064 4.687 4.687 0 0 0-1.754-2.269 18.386 18.386 0 0 0-7.272 12.187C3.976 29.15 5.041 31.5 8.5 31.5c3.005 0 4.2-1.776 4.677-4.08A4.652 4.652 0 0 0 18 31c3.616 0 4.849-2.537 5.273-5.662.478 3.427 1.8 6.162 5.477 6.162 3.4 0 4.779-2.335 5.349-5.391A4.258 4.258 0 0 0 38.5 29.5c4.947 0 5-5.336 5-9.854z" fill="#f2c100"></path><path d="M38.746 17.575C36.6 12.757 32.33 9.5 25 9.5c-11.874 0-21.5 8.507-21.5 19s9.626 19 21.5 19 21.5-8.507 21.5-19c0-7.321-3.354-10.446-7.754-10.925z" fill="none" stroke="#45413c" stroke-linecap="round" stroke-linejoin="round" stroke-width="1.25px"></path><ellipse cx="8.5" cy="18" rx="5" ry="9" fill="#ffe500"></ellipse><path d="M8.5 12.5c3.994 0 4.835 3.866 4.975 7.6.023-.7.025-1.411.025-2.1 0-4.093-.5-9-5-9s-5 4.907-5 9c0 .686 0 1.393.025 2.1.14-3.734.981-7.6 4.975-7.6z" fill="#fff48c"></path><ellipse cx="8.5" cy="18" rx="5" ry="9" fill="none" stroke="#45413c" stroke-linecap="round" stroke-linejoin="round" stroke-width="1.25px"></ellipse><ellipse cx="18" cy="15.75" rx="5.5" ry="10.75" fill="#ffe500"></ellipse><path d="M18 8.5c4.5 0 5.363 4.853 5.481 9.412.017-.727.019-1.455.019-2.162C23.5 10.861 22.95 5 18 5s-5.5 5.861-5.5 10.75c0 .707 0 1.435.019 2.162C12.637 13.353 13.5 8.5 18 8.5z" fill="#fff48c"></path><ellipse cx="18" cy="15.75" rx="5.5" ry="10.75" fill="none" stroke="#45413c" stroke-linecap="round" stroke-linejoin="round" stroke-width="1.25px"></ellipse><ellipse cx="38.5" cy="15" rx="5" ry="10" fill="#ffe500"></ellipse><path d="M38.5 8.5c4.057 0 4.86 4.429 4.979 8.634.021-.717.021-1.434.021-2.134 0-4.548-.5-10-5-10s-5 5.452-5 10c0 .7 0 1.417.021 2.134.119-4.205.922-8.634 4.979-8.634z" fill="#fff48c"></path><ellipse cx="38.5" cy="15" rx="5" ry="10" fill="none" stroke="#45413c" stroke-linecap="round" stroke-linejoin="round" stroke-width="1.25px"></ellipse><ellipse cx="28.75" cy="14.75" rx="5.75" ry="12.25" fill="#ffe500"></ellipse><path d="M28.75 6.5c4.708 0 5.606 5.526 5.73 10.719.018-.83.02-1.661.02-2.469 0-5.572-.575-12.25-5.75-12.25S23 9.178 23 14.75c0 .808 0 1.639.02 2.469.124-5.193 1.022-10.719 5.73-10.719z" fill="#fff48c"></path><ellipse cx="28.75" cy="14.75" rx="5.75" ry="12.25" fill="none" stroke="#45413c" stroke-linecap="round" stroke-linejoin="round" stroke-width="1.25px"></ellipse><path d="M37 30c-7 0-11-1-11-6 0-4.5 3.5-6.5 11.5-6.5 5 0 9 3 9 11" fill="#ffe500"></path><path d="M37.5 21.5c4.075 0 7.484 2 8.606 7.062l.394-.062c0-8-4-11-9-11-8 0-11.5 2-11.5 6.5a6.676 6.676 0 0 0 .29 2.018c.971-3.106 4.504-4.518 11.21-4.518z" fill="#fff48c"></path><path d="M46.5 28.5c0-8-4-11-9-11-8 0-11.5 2-11.5 6.5 0 5 4 6 11 6-5.5 0-9.5 1-11.5 5.5" fill="none" stroke="#45413c" stroke-linecap="round" stroke-linejoin="round" stroke-width="1.25px"></path></svg>