<svg xmlns="http://www.w3.org/2000/svg" viewBox="0 0 50 50" height="250" width="250"><defs></defs><path d="M40.223 28.938s-.985-4.845-1.065-6.59 1.316-12.331 1.621-15.859c.415-4.81-5.464-5.426-6.419-1.9-1.26 4.675-3.419 16.931-3.419 16.931h-1.586S27.377 7.412 26.818 3.954C26.236.359 20.311.542 20.4 4.826c.066 3.4.564 10.717.8 14.055a4.216 4.216 0 0 0-2.292-.668 3.623 3.623 0 0 0-3.808 3.075 3.854 3.854 0 0 0-2.72-.687c-1.94.218-3.365 1.7-3.184 3.306l.959 5.513a7.769 7.769 0 0 0-.536 2.921c0 7.764 3.074 16.237 16.074 16.237 11.5 0 14.088-6.191 14.828-11.53.472-3.424.398-6.155-.298-8.11z" fill="#ffe500"></path><path d="M40.519 33.189c-.741 5.339-3.328 11.53-14.828 11.53-11.618 0-15.3-6.768-15.958-13.748a8.362 8.362 0 0 0-.116 1.37c0 7.764 3.074 16.237 16.074 16.237 11.5 0 14.087-6.191 14.828-11.53a24.034 24.034 0 0 0 .206-5.758c-.05.61-.114 1.237-.206 1.899z" fill="#f2c100"></path><path d="M10.022 29.712a8.116 8.116 0 0 0-.4 2.629c0 7.764 3.074 16.237 16.074 16.237 11.5 0 14.087-6.191 14.828-11.53.934-6.741-.248-10.812-4.145-11.513-3.361-.605-9.622-.092-12.874-.092-4.44 0-3.607 7.136 2 7.136 5.313 0 6.872-.555 7.454 1.824" fill="none" stroke="#45413c" stroke-linecap="round" stroke-linejoin="round" stroke-width="1.25px"></path><path d="M40.226 28.94s-.985-4.845-1.065-6.59 1.316-12.331 1.62-15.859c.415-4.81-5.464-5.426-6.418-1.9C33.1 9.264 30.941 21.52 30.941 21.52h-1.586S27.377 7.412 26.818 3.954C26.236.359 20.311.542 20.4 4.826c.087 4.477.925 15.78.925 15.78" fill="none" stroke="#45413c" stroke-linecap="round" stroke-linejoin="round" stroke-width="1.25px"></path><path d="M12.378 20.6c-1.94.218-3.365 1.7-3.184 3.306l1.2 6.9a2.971 2.971 0 0 0 3.431 2.674 2.854 2.854 0 0 0 2.712-3.267l-.321-7.1c-.18-1.603-1.899-2.73-3.838-2.513z" fill="#ffe500"></path><path d="m16.537 30.214-.092-2.046c-.183 1.3-1.271 2.387-3.17 2.6a3.693 3.693 0 0 1-3.042-.888l.161.927a2.97 2.97 0 0 0 3.431 2.674 2.853 2.853 0 0 0 2.712-3.267z" fill="#f2c100"></path><path d="M12.378 20.6c-1.94.218-3.365 1.7-3.184 3.306l1.2 6.9a2.971 2.971 0 0 0 3.431 2.674 2.854 2.854 0 0 0 2.712-3.267l-.321-7.1c-.18-1.603-1.899-2.73-3.838-2.513z" fill="none" stroke="#45413c" stroke-linecap="round" stroke-linejoin="round" stroke-width="1.25px"></path><path d="M18.9 32.777a3.117 3.117 0 0 0 2.933-1.677c-1.722-1.831-1.548-4.78.637-5.488l.266-4.108a3.593 3.593 0 0 0-3.836-3.291 3.592 3.592 0 0 0-3.831 3.292l.457 7.855a3.281 3.281 0 0 0 3.374 3.417z" fill="#ffe500"></path><path d="M18.9 32.777a3.117 3.117 0 0 0 2.933-1.677c-1.722-1.831-1.548-4.78.637-5.488l.266-4.108a3.593 3.593 0 0 0-3.836-3.291 3.592 3.592 0 0 0-3.831 3.292l.457 7.855a3.281 3.281 0 0 0 3.374 3.417z" fill="#ffe500"></path><path d="M18.9 30.6a3.992 3.992 0 0 1-3.393-1.565l.019.328a3.281 3.281 0 0 0 3.374 3.414 3.117 3.117 0 0 0 2.933-1.677 4.281 4.281 0 0 1-.7-1.03 4.573 4.573 0 0 1-2.233.53z" fill="#f2c100"></path><path d="M18.9 32.777a3.117 3.117 0 0 0 2.933-1.677c-1.722-1.831-1.548-4.78.637-5.488l.266-4.108a3.593 3.593 0 0 0-3.836-3.291 3.592 3.592 0 0 0-3.831 3.292l.457 7.855a3.281 3.281 0 0 0 3.374 3.417z" fill="none" stroke="#45413c" stroke-linecap="round" stroke-linejoin="round" stroke-width="1.25px"></path></svg>